<?xml version="1.0" encoding="utf-8"?>
<!-- Generator: Adobe Illustrator 20.1.0, SVG Export Plug-In . SVG Version: 6.00 Build 0)  -->
<svg version="1.1" id="Layer_1" xmlns="http://www.w3.org/2000/svg" xmlns:xlink="http://www.w3.org/1999/xlink" x="0px" y="0px"
	 width="19.5px" height="20.9px" viewBox="0 0 19.5 20.9" enable-background="new 0 0 19.5 20.9" xml:space="preserve">
<g id="LZcY1w.tif">
	<g>
		<path fill="#FFFFFF" d="M0,19.6C0,14.5,0,9.4,0,4.3C0.2,3.4,0.9,2.9,1.8,3C2.2,3,2.6,3,3,3c0-0.4,0-0.8,0-1.2C3,0.9,3.7,0.1,4.5,0
			C5,0,5.5,0,6,0c0.1,0,0.2,0,0.3,0.1C7.1,0.5,7.5,1,7.5,1.8c0,0.4,0,0.8,0,1.2c1.5,0,3,0,4.5,0c0-0.1,0-0.2,0-0.2c0-0.3,0-0.7,0-1
			c0-0.8,0.7-1.5,1.4-1.7c0.5-0.1,1,0,1.5,0c0.1,0,0.3,0.1,0.4,0.1C16,0.5,16.4,1,16.5,1.8c0,0.4,0,0.8,0,1.2c0.1,0,0.2,0,0.3,0
			c0.4,0,0.9,0,1.3,0c0.4,0,0.7,0.2,1,0.4c0.3,0.2,0.4,0.6,0.5,0.9c0,5.1,0,10.2,0,15.3c-0.1,0.3-0.2,0.5-0.4,0.8
			c-0.2,0.3-0.6,0.5-0.9,0.6c-5.6,0-11.2,0-16.9,0c-0.4-0.1-0.7-0.2-0.9-0.5C0.2,20.2,0.1,19.9,0,19.6z M13.9,11.6
			c-1.3,0-2.5,0-3.7,0c0,1.2,0,2.5,0,3.7c1.3,0,2.5,0,3.7,0C13.9,14.1,13.9,12.8,13.9,11.6z M9.4,11.6c-1.3,0-2.5,0-3.7,0
			c0,1.2,0,2.5,0,3.7c1.2,0,2.5,0,3.7,0C9.4,14.1,9.4,12.8,9.4,11.6z M9.4,7.5c-1.3,0-2.5,0-3.7,0c0,1.1,0,2.2,0,3.3
			c1.2,0,2.5,0,3.7,0C9.4,9.7,9.4,8.6,9.4,7.5z M10.1,7.5c0,1.1,0,2.2,0,3.3c1.2,0,2.5,0,3.7,0c0-1.1,0-2.2,0-3.3
			C12.6,7.5,11.4,7.5,10.1,7.5z M10.1,16.1c0,1.1,0,2.2,0,3.3c1.2,0,2.5,0,3.7,0c0-1.1,0-2.2,0-3.3C12.6,16.1,11.4,16.1,10.1,16.1z
			 M9.4,16.1c-1.3,0-2.5,0-3.7,0c0,1.1,0,2.2,0,3.3c1.2,0,2.5,0,3.7,0C9.4,18.3,9.4,17.2,9.4,16.1z M18,11.6c-1.1,0-2.2,0-3.3,0
			c0,1.2,0,2.5,0,3.7c1.1,0,2.2,0,3.3,0C18,14.1,18,12.8,18,11.6z M4.9,15.3c0-1.2,0-2.5,0-3.7c-1.1,0-2.2,0-3.3,0
			c0,1.2,0,2.5,0,3.7C2.6,15.3,3.7,15.3,4.9,15.3z M18,7.5c-1.1,0-2.2,0-3.3,0c0,1.1,0,2.2,0,3.3c1.1,0,2.2,0,3.3,0
			C18,9.7,18,8.6,18,7.5z M4.9,10.8c0-1.1,0-2.2,0-3.3c-1.1,0-2.2,0-3.3,0c0,1.1,0,2.2,0,3.3C2.6,10.8,3.7,10.8,4.9,10.8z M4.9,16.1
			c-1.1,0-2.2,0-3.3,0c0,1.1,0,2.2,0,3.3c1.1,0,2.2,0,3.3,0C4.9,18.3,4.9,17.2,4.9,16.1z M18,19.4c0-1.1,0-2.2,0-3.3
			c-1.1,0-2.2,0-3.3,0c0,1.1,0,2.2,0,3.3C15.7,19.4,16.8,19.4,18,19.4z M6,3.6C6,3,6,2.5,6,1.9c0-0.3-0.1-0.4-0.4-0.4
			c-0.2,0-0.4,0-0.6,0c-0.3,0-0.5,0.1-0.5,0.4c0,0.2,0,0.4,0,0.5c0,0.9,0,1.8,0,2.6c0,0.4,0.1,0.5,0.5,0.5c0.2,0,0.4,0,0.5,0
			C5.9,5.6,6,5.5,6,5.1C6,4.6,6,4.1,6,3.6z M13.5,3.5c0,0.5,0,1.1,0,1.6c0,0.3,0.1,0.5,0.4,0.5c0.2,0,0.4,0,0.6,0
			c0.3,0,0.4-0.1,0.4-0.4c0-1.1,0-2.2,0-3.3c0-0.3-0.1-0.4-0.4-0.4c-0.2,0-0.4,0-0.6,0c-0.3,0-0.4,0.1-0.4,0.5
			C13.5,2.5,13.5,3,13.5,3.5z"/>
		<path fill="#FFFFFF" d="M0,19.6c0.1,0.3,0.2,0.5,0.4,0.8c0.2,0.3,0.6,0.4,0.9,0.5"/>
		<path fill="#FFFFFF" d="M18.2,20.9c0.4-0.1,0.7-0.2,0.9-0.6c0.2-0.2,0.3-0.5,0.4-0.8"/>
	</g>
</g>
</svg>
